<svg width="30" height="29" viewBox="0 0 30 29" fill="none" xmlns="http://www.w3.org/2000/svg"> <path d="M15.0376 16.4356H15.0441C15.2703 16.4356 15.4939 16.3721 15.6748 16.2566L15.7238 16.2261C15.7345 16.2194 15.7457 16.2133 15.7569 16.206L16.3284 15.749L29.9685 4.86814C29.9403 4.83047 29.8922 4.80469 29.841 4.80469H0.15848C0.121667 4.80469 0.0875 4.81758 0.0602941 4.83923L14.3311 16.2096C14.511 16.3536 14.7676 16.4356 15.0376 16.4356ZM0 6.34647V22.4751L10.223 14.492L0 6.34647ZM19.7876 14.5462L30 22.4792V6.40011L19.7876 14.5462ZM16.5407 17.1355C16.1336 17.4584 15.6011 17.6364 15.0419 17.6364C14.4806 17.6364 13.9486 17.4594 13.5425 17.1381L11.2011 15.2714L0 24.0169V24.0447C0 24.1278 0.0736274 24.1984 0.160588 24.1984H29.8415C29.9269 24.1984 30 24.1278 30 24.0442V24.0184L18.8085 15.3261L16.5407 17.1355Z" fill="black" fill-opacity="0.3"/> </svg>
