<svg xmlns="http://www.w3.org/2000/svg" xmlns:xlink="http://www.w3.org/1999/xlink" version="1.1" style="" xml:space="preserve" width="350" height="350"><rect id="backgroundrect" width="100%" height="100%" x="0" y="0" fill="none" stroke="none"/>
















<g class="currentLayer" style=""><title>Layer 1</title><g id="svg_1" class="" fill="#b6b6b6" fill-opacity="1">
	<path d="M175,171.173c38.914,0,70.463-38.318,70.463-85.586C245.463,38.318,235.105,0,175,0s-70.465,38.318-70.465,85.587   C104.535,132.855,136.084,171.173,175,171.173z" id="svg_2" fill="#b6b6b6" fill-opacity="1"/>
	<path d="M41.909,301.853C41.897,298.971,41.885,301.041,41.909,301.853L41.909,301.853z" id="svg_3" fill="#b6b6b6" fill-opacity="1"/>
	<path d="M308.085,304.104C308.123,303.315,308.098,298.63,308.085,304.104L308.085,304.104z" id="svg_4" fill="#b6b6b6" fill-opacity="1"/>
	<path d="M307.935,298.397c-1.305-82.342-12.059-105.805-94.352-120.657c0,0-11.584,14.761-38.584,14.761   s-38.586-14.761-38.586-14.761c-81.395,14.69-92.803,37.805-94.303,117.982c-0.123,6.547-0.18,6.891-0.202,6.131   c0.005,1.424,0.011,4.058,0.011,8.651c0,0,19.592,39.496,133.08,39.496c113.486,0,133.08-39.496,133.08-39.496   c0-2.951,0.002-5.003,0.005-6.399C308.062,304.575,308.018,303.664,307.935,298.397z" id="svg_5" fill="#b6b6b6" fill-opacity="1"/>
</g><g id="svg_6">
</g><g id="svg_7">
</g><g id="svg_8">
</g><g id="svg_9">
</g><g id="svg_10">
</g><g id="svg_11">
</g><g id="svg_12">
</g><g id="svg_13">
</g><g id="svg_14">
</g><g id="svg_15">
</g><g id="svg_16">
</g><g id="svg_17">
</g><g id="svg_18">
</g><g id="svg_19">
</g><g id="svg_20">
</g></g></svg>