<svg width="20" height="27" viewBox="0 0 20 27" fill="none" xmlns="http://www.w3.org/2000/svg">
<path d="M19.3998 18.0188C19.8214 17.3363 20.0236 16.6046 19.9978 15.8511C19.972 15.0211 19.6794 14.3714 19.4385 13.9728C19.7181 13.0882 19.8257 11.6958 18.8921 10.6147C18.208 9.82299 17.0463 9.46807 15.4372 9.56636C14.3057 9.63188 13.3591 9.89943 13.3204 9.91035H13.3161C13.101 9.95949 12.8729 10.0196 12.6406 10.0851C12.6234 9.73562 12.6707 8.86745 13.1784 6.91268C13.7808 4.58662 13.7463 2.80659 13.0666 1.61626C12.3523 0.365862 11.2122 0.267578 10.8766 0.267578C10.5539 0.267578 10.2571 0.436845 10.0462 0.748079C9.56866 1.45245 9.62459 2.75198 9.68482 3.35261C9.1169 5.28553 7.52499 10.025 6.17832 11.3409C6.15251 11.3628 6.131 11.3901 6.10948 11.4174C5.71366 11.947 5.44691 12.5203 5.2662 13.0227C5.01236 12.848 4.72409 12.7497 4.41432 12.7497H1.78982C0.800257 12.7497 0 13.7707 0 15.0211V23.894C0 25.1499 0.804559 26.1655 1.78982 26.1655H4.41432C4.79724 26.1655 5.15434 26.0126 5.44691 25.7505L6.45798 25.9034C6.61287 25.9307 9.36644 26.373 12.1932 26.302C12.7051 26.3511 13.187 26.3784 13.6345 26.3784C14.4046 26.3784 15.0758 26.302 15.6351 26.1491C16.9517 25.7942 17.8509 25.0843 18.3069 24.0414C18.6554 23.2442 18.6554 22.4525 18.5995 21.9502C19.4557 20.9673 19.6063 19.8807 19.5762 19.1163C19.559 18.674 19.4815 18.2973 19.3998 18.0188ZM1.78982 24.6912C1.44132 24.6912 1.16166 24.3308 1.16166 23.894V15.0157C1.16166 14.5734 1.44562 14.2185 1.78982 14.2185H4.41432C4.76282 14.2185 5.04248 14.5789 5.04248 15.0157V23.8885C5.04248 24.3308 4.75851 24.6857 4.41432 24.6857H1.78982V24.6912ZM18.2983 17.38C18.1176 17.6202 18.0832 17.986 18.2209 18.27C18.2209 18.2754 18.3973 18.6576 18.4188 19.1818C18.4489 19.8971 18.1779 20.5305 17.6099 21.0711C17.4077 21.2676 17.326 21.6062 17.412 21.9119C17.412 21.9174 17.597 22.6382 17.2959 23.3207C17.0076 23.9759 16.3665 24.4455 15.3942 24.7076C14.6154 24.9205 13.557 24.9588 12.2577 24.8277C12.2405 24.8277 12.219 24.8277 12.1975 24.8277C9.43098 24.9042 6.63438 24.4455 6.60427 24.44H6.59996L6.16542 24.3745C6.19123 24.2216 6.20414 24.0578 6.20414 23.894V15.0157C6.20414 14.7809 6.17402 14.5516 6.12239 14.3386C6.19984 13.9728 6.41496 13.1592 6.92265 12.4657C8.85445 10.5219 10.7432 3.96416 10.825 3.68022C10.8594 3.56556 10.868 3.43997 10.8508 3.31439C10.7776 2.70284 10.8035 1.95479 10.9067 1.73092C11.1348 1.73638 11.75 1.81828 12.12 2.46805C12.5589 3.23795 12.5417 4.61392 12.0684 6.43764C11.3456 9.2169 11.2853 10.6802 11.8576 11.3246C12.1415 11.6467 12.5201 11.6631 12.7955 11.5375C13.0579 11.4611 13.3075 11.3955 13.5441 11.3464C13.5613 11.3409 13.5828 11.3355 13.6001 11.33C14.9209 10.9642 17.2873 10.7403 18.109 11.6904C18.806 12.4985 18.3112 13.5687 18.2553 13.6834C18.0961 13.9891 18.1434 14.3877 18.3586 14.6335C18.3629 14.6389 18.8146 15.1795 18.8361 15.9057C18.8534 16.3916 18.6727 16.8885 18.2983 17.38Z" fill="#03D6F5"/>
</svg>
