<svg width="24" height="24" viewBox="0 0 24 24" fill="none" xmlns="http://www.w3.org/2000/svg">
<path d="M0.00133392 21.0235C2.13101 22.6505 4.65727 23.592 7.36533 23.592C14.9732 23.592 21.1405 16.1626 21.1405 6.99951C21.1405 6.77073 21.1365 6.54363 21.1292 6.31722C21.4043 6.05638 23.1063 4.41329 23.5234 3.357C23.5234 3.357 22.1413 4.04884 20.7887 4.21183C20.786 4.21183 20.7827 4.21259 20.78 4.21259C20.78 4.21259 20.7827 4.21098 20.7873 4.207C20.912 4.10669 22.6545 2.67792 22.8904 0.975541C22.8904 0.975541 21.9128 1.60404 20.5441 2.15388C20.3175 2.24455 20.0803 2.33369 19.8358 2.41632C18.9535 1.28213 17.6994 0.574219 16.3074 0.574219C13.6372 0.574219 11.4736 3.17964 11.4736 6.39342C11.4736 6.84693 11.5169 7.28834 11.5988 7.71216C11.2257 7.69372 5.54355 7.30999 1.67797 1.67136C1.67797 1.67136 -0.632303 5.47034 3.05471 9.37682C3.05471 9.37682 1.93391 9.32303 0.966956 8.62712C0.966956 8.62712 0.611799 13.2295 4.78724 14.4062C4.78724 14.4062 3.96564 14.7811 2.6549 14.5138C2.6549 14.5138 3.38789 18.2325 7.09759 18.5801C7.09759 18.5801 4.16414 21.772 0 21.0231L0.00133392 21.0235Z" fill="#03D6F5"/>
</svg>
