<svg width="13" height="22" viewBox="0 0 13 22" fill="none" xmlns="http://www.w3.org/2000/svg">
<mask id="path-1-inside-1" fill="white">
<path d="M12.9618 2.37378C12.9618 1.08785 12.2538 0.0321094 11.3792 0.00386861V0H1.64346C0.757726 0 0.0371094 1.05652 0.0371094 2.35598V22L5.04872 17.1L10.0603 22V9.67152H12.9618V2.37378ZM9.53278 20.5547L5.04872 16.17L0.564647 20.5547V2.35598C0.564647 1.48361 1.04866 0.773722 1.64346 0.773722H10.0883C9.829 1.14588 9.64462 1.62946 9.56997 2.17068L9.56971 2.17184C9.55784 2.25772 9.54861 2.34515 9.54254 2.43374C9.53621 2.52388 9.53278 2.61557 9.53278 2.70803V9.67152V20.5547ZM12.4342 8.8978H10.0603V2.70803C10.0603 2.57649 10.0696 2.44844 10.0867 2.32426C10.1888 1.59309 10.5768 1.00932 11.07 0.832911C11.0795 0.82943 11.088 0.82324 11.0975 0.820532C11.1616 0.799641 11.2288 0.792291 11.2961 0.786101C11.318 0.784167 11.3388 0.776816 11.361 0.77643C11.9534 0.790743 12.4342 1.50411 12.4342 2.37378V8.8978Z"/>
</mask>
<path d="M12.9618 2.37378C12.9618 1.08785 12.2538 0.0321094 11.3792 0.00386861V0H1.64346C0.757726 0 0.0371094 1.05652 0.0371094 2.35598V22L5.04872 17.1L10.0603 22V9.67152H12.9618V2.37378ZM9.53278 20.5547L5.04872 16.17L0.564647 20.5547V2.35598C0.564647 1.48361 1.04866 0.773722 1.64346 0.773722H10.0883C9.829 1.14588 9.64462 1.62946 9.56997 2.17068L9.56971 2.17184C9.55784 2.25772 9.54861 2.34515 9.54254 2.43374C9.53621 2.52388 9.53278 2.61557 9.53278 2.70803V9.67152V20.5547ZM12.4342 8.8978H10.0603V2.70803C10.0603 2.57649 10.0696 2.44844 10.0867 2.32426C10.1888 1.59309 10.5768 1.00932 11.07 0.832911C11.0795 0.82943 11.088 0.82324 11.0975 0.820532C11.1616 0.799641 11.2288 0.792291 11.2961 0.786101C11.318 0.784167 11.3388 0.776816 11.361 0.77643C11.9534 0.790743 12.4342 1.50411 12.4342 2.37378V8.8978Z" fill="#03D6F5"/>
<path d="M11.3792 0.00386861H6.37916V4.84503L11.2178 5.00126L11.3792 0.00386861ZM11.3792 0H16.3792V-5H11.3792V0ZM0.0371094 22H-4.96289V33.8814L3.5326 25.5751L0.0371094 22ZM5.04872 17.1L8.54421 13.5249L5.04872 10.1073L1.55322 13.5249L5.04872 17.1ZM10.0603 22L6.56483 25.5751L15.0603 33.8814V22H10.0603ZM10.0603 9.67152V4.67152H5.06032V9.67152H10.0603ZM12.9618 9.67152V14.6715H17.9618V9.67152H12.9618ZM9.53278 20.5547L6.03709 24.1296L14.5328 32.437V20.5547H9.53278ZM5.04872 16.17L8.54441 12.5951L5.04872 9.17686L1.55302 12.5951L5.04872 16.17ZM0.564647 20.5547H-4.43535V32.437L4.06034 24.1296L0.564647 20.5547ZM10.0883 0.773722L14.1908 3.63195L19.6656 -4.22628H10.0883V0.773722ZM9.56997 2.17068L14.4458 3.27828L14.4936 3.06772L14.5231 2.85382L9.56997 2.17068ZM9.56971 2.17184L4.69393 1.06423L4.64626 1.27411L4.61679 1.48731L9.56971 2.17184ZM9.54254 2.43374L14.5303 2.78403L14.5309 2.77534L9.54254 2.43374ZM10.0603 8.8978H5.06032V13.8978H10.0603V8.8978ZM10.0867 2.32426L5.13472 1.63291L5.13368 1.64043L10.0867 2.32426ZM11.07 0.832911L12.7538 5.54087L12.7726 5.53416L12.7913 5.52729L11.07 0.832911ZM11.0975 0.820532L12.4687 5.62882L12.5583 5.60327L12.6469 5.57441L11.0975 0.820532ZM11.2961 0.786101L10.856 -4.1945L10.847 -4.1937L10.8379 -4.19286L11.2961 0.786101ZM11.361 0.77643L11.4817 -4.22211L11.3777 -4.22463L11.2737 -4.22281L11.361 0.77643ZM17.9618 2.37378C17.9618 0.859434 17.5534 -0.718318 16.6549 -2.06202C15.7805 -3.36968 14.0733 -4.91175 11.5405 -4.99353L11.2178 5.00126C9.55973 4.94773 8.64375 3.94765 8.34203 3.4964C8.0162 3.00911 7.96178 2.6022 7.96178 2.37378H17.9618ZM16.3792 0.00386861V0H6.37916V0.00386861H16.3792ZM11.3792 -5H1.64346V5H11.3792V-5ZM1.64346 -5C-0.943404 -5 -2.71615 -3.45589 -3.62285 -2.12621C-4.54869 -0.768477 -4.96289 0.83073 -4.96289 2.35598H5.03711C5.03711 2.58177 4.98321 3.00299 4.63912 3.50759C4.31416 3.98414 3.34459 5 1.64346 5V-5ZM-4.96289 2.35598V22H5.03711V2.35598H-4.96289ZM3.5326 25.5751L8.54421 20.6751L1.55322 13.5249L-3.45838 18.4249L3.5326 25.5751ZM1.55322 20.6751L6.56483 25.5751L13.5558 18.4249L8.54421 13.5249L1.55322 20.6751ZM15.0603 22V9.67152H5.06032V22H15.0603ZM10.0603 14.6715H12.9618V4.67152H10.0603V14.6715ZM17.9618 9.67152V2.37378H7.96178V9.67152H17.9618ZM13.0285 16.9798L8.54441 12.5951L1.55302 19.7449L6.03709 24.1296L13.0285 16.9798ZM1.55302 12.5951L-2.93105 16.9798L4.06034 24.1296L8.54441 19.7449L1.55302 12.5951ZM5.56465 20.5547V2.35598H-4.43535V20.5547H5.56465ZM5.56465 2.35598C5.56465 2.79574 5.45139 3.41017 5.01214 4.0544C4.59229 4.67017 3.49102 5.77372 1.64346 5.77372V-4.22628C-0.798895 -4.22628 -2.43958 -2.76778 -3.25013 -1.57897C-4.08009 -0.361702 -4.43535 1.04385 -4.43535 2.35598H5.56465ZM1.64346 5.77372H10.0883V-4.22628H1.64346V5.77372ZM5.98578 -2.0845C5.21759 -0.981899 4.78469 0.270709 4.61686 1.48753L14.5231 2.85382C14.5046 2.98821 14.4404 3.27366 14.1908 3.63195L5.98578 -2.0845ZM4.6942 1.06307L4.69393 1.06423L14.4455 3.27944L14.4458 3.27828L4.6942 1.06307ZM4.61679 1.48731C4.59008 1.6806 4.56858 1.88254 4.55423 2.09214L14.5309 2.77534C14.5286 2.80776 14.5256 2.83484 14.5226 2.85636L4.61679 1.48731ZM4.55483 2.08345C4.54077 2.28365 4.53278 2.49233 4.53278 2.70803H14.5328C14.5328 2.7388 14.5317 2.76411 14.5303 2.78403L4.55483 2.08345ZM4.53278 2.70803V9.67152H14.5328V2.70803H4.53278ZM4.53278 9.67152V20.5547H14.5328V9.67152H4.53278ZM12.4342 3.8978H10.0603V13.8978H12.4342V3.8978ZM15.0603 8.8978V2.70803H5.06032V8.8978H15.0603ZM15.0603 2.70803C15.0603 2.81097 15.0531 2.91141 15.0397 3.00809L5.13368 1.64043C5.08604 1.98547 5.06032 2.34202 5.06032 2.70803H15.0603ZM15.0387 3.01561C14.9981 3.30626 14.8857 3.69955 14.6031 4.12722C14.3332 4.53566 13.7619 5.18034 12.7538 5.54087L9.38624 -3.87505C6.47491 -2.83382 5.37877 -0.11512 5.13472 1.63291L15.0387 3.01561ZM12.7913 5.52729C13.0125 5.44618 13.1827 5.36596 13.2731 5.32177C13.3196 5.29905 13.356 5.28037 13.3724 5.27192C13.3807 5.26761 13.3875 5.26408 13.3885 5.26358C13.3915 5.26202 13.3868 5.26445 13.3824 5.26673C13.3709 5.2727 13.2659 5.32757 13.1286 5.38886C12.9845 5.45321 12.7574 5.54649 12.4687 5.62882L9.72621 -3.98776C9.43276 -3.90407 9.20106 -3.809 9.05237 -3.74263C8.91052 -3.67931 8.80112 -3.62216 8.7851 -3.61387C8.77958 -3.61101 8.77379 -3.60799 8.77567 -3.60897C8.7758 -3.60904 8.77728 -3.60981 8.77926 -3.61084C8.78132 -3.6119 8.78449 -3.61355 8.78839 -3.61556C8.80253 -3.62285 8.83666 -3.64038 8.88086 -3.662C8.9667 -3.70396 9.13228 -3.7821 9.34876 -3.86147L12.7913 5.52729ZM12.6469 5.57441C12.357 5.6689 12.117 5.71437 11.9718 5.73719C11.836 5.75852 11.7342 5.76691 11.7543 5.76506L10.8379 -4.19286C10.7845 -4.18795 10.2052 -4.14754 9.54805 -3.93334L12.6469 5.57441ZM11.7361 5.7667C11.9438 5.74835 12.1085 5.72086 12.1972 5.7049C12.2425 5.69676 12.2784 5.68969 12.294 5.68658C12.3018 5.68503 12.3087 5.68365 12.3092 5.68356C12.3115 5.68309 12.3073 5.68393 12.3022 5.68494C12.288 5.68776 12.1855 5.70845 12.0523 5.72749C11.9121 5.74753 11.7033 5.77121 11.4483 5.77567L11.2737 -4.22281C11.0076 -4.21816 10.7878 -4.19341 10.6369 -4.17183C10.4928 -4.15124 10.3795 -4.12852 10.3546 -4.12357C10.3469 -4.12203 10.34 -4.12065 10.3396 -4.12058C10.3374 -4.12013 10.3416 -4.12098 10.3468 -4.122C10.357 -4.12404 10.3876 -4.13007 10.4274 -4.13724C10.5054 -4.15127 10.6593 -4.17711 10.856 -4.1945L11.7361 5.7667ZM11.2402 5.77497C9.42842 5.7312 8.37085 4.63951 7.97085 4.04479C7.54733 3.41508 7.43424 2.81377 7.43424 2.37378H17.4342C17.4342 1.06412 17.0807 -0.328704 16.2687 -1.53609C15.4801 -2.7085 13.8859 -4.16402 11.4817 -4.22211L11.2402 5.77497ZM7.43424 2.37378V8.8978H17.4342V2.37378H7.43424Z" fill="#03D6F5" mask="url(#path-1-inside-1)"/>
</svg>
